<svg width="50" height="34" viewBox="0 0 50 34" fill="none" xmlns="http://www.w3.org/2000/svg">
<g opacity="0.2">
<rect opacity="0.18" width="50" height="34" rx="4" fill="white"/>
<path fill-rule="evenodd" clip-rule="evenodd" d="M36.52 17C36.52 23.3098 31.3622 28.4249 24.9997 28.4249C18.6372 28.4249 13.4794 23.3098 13.4794 17C13.4794 10.6903 18.6372 5.5752 24.9997 5.5752C31.3622 5.5752 36.52 10.6903 36.52 17ZM27.7674 12.7553C29.3699 13.301 30.5421 14.1182 30.3122 15.639C30.1451 16.7526 29.5203 17.2912 28.6901 17.4798C29.8291 18.0656 30.2173 19.1772 29.8566 20.5214C29.1718 22.4558 27.5439 22.6186 25.3788 22.2143L24.8531 24.2937L23.5839 23.9808L24.1024 21.9293C23.7734 21.8486 23.4371 21.7622 23.0907 21.67L22.5701 23.7315L21.3024 23.4187L21.8274 21.335L19.271 20.6978L19.9016 19.262C19.9016 19.262 20.8374 19.5071 20.8244 19.4892C21.1838 19.5771 21.3436 19.3456 21.4065 19.192L22.8311 13.5482C22.847 13.2818 22.7538 12.946 22.2396 12.8189C22.2591 12.8053 21.3176 12.5924 21.3176 12.5924L21.6553 11.2531L24.2153 11.8795L24.7359 9.81945L26.0043 10.1323L25.4945 12.1517C25.8358 12.2281 26.1786 12.306 26.512 12.3881L27.0182 10.3816L28.2873 10.6945L27.7674 12.7553ZM24.7306 16.1921C25.5952 16.4195 27.4764 16.9141 27.8043 15.6171C28.1388 14.2901 26.3111 13.8894 25.4163 13.6931L25.4163 13.6931C25.3148 13.6709 25.2254 13.6513 25.1525 13.6332L24.5204 16.1379C24.5806 16.1527 24.6513 16.1713 24.7305 16.1921L24.7306 16.1921ZM23.7511 20.2244C24.7866 20.4949 27.0512 21.0865 27.4116 19.6573C27.7804 18.196 25.5847 17.7093 24.5133 17.4718L24.5133 17.4718L24.513 17.4717C24.3934 17.4452 24.2879 17.4218 24.2015 17.4005L23.5044 20.161C23.5752 20.1784 23.6582 20.2001 23.7511 20.2244Z" fill="white"/>
</g>
</svg>
