<svg width="48" height="48" viewBox="0 0 48 48" fill="none" xmlns="http://www.w3.org/2000/svg">
<path d="M16 22.8C16 24.34 17.2 25.6 18.66 25.6H21.66C22.94 25.6 23.98 24.5 23.98 23.16C23.98 21.7 23.34 21.18 22.4 20.84L17.6 19.16C16.64 18.82 16 18.3 16 16.84C16 15.5 17.04 14.4 18.32 14.4H21.32C22.8 14.42 24 15.66 24 17.2" stroke="white" stroke-width="2" stroke-linecap="round" stroke-linejoin="round"/>
<path d="M20 25.7V27.18" stroke="white" stroke-width="2" stroke-linecap="round" stroke-linejoin="round"/>
<path d="M20 12.82V14.38" stroke="white" stroke-width="2" stroke-linecap="round" stroke-linejoin="round"/>
<path d="M19.98 35.96C28.8055 35.96 35.96 28.8055 35.96 19.98C35.96 11.1545 28.8055 4 19.98 4C11.1545 4 4 11.1545 4 19.98C4 28.8055 11.1545 35.96 19.98 35.96Z" stroke="white" stroke-width="2" stroke-linecap="round" stroke-linejoin="round"/>
<path d="M25.9609 39.76C27.7609 42.3 30.7009 43.96 34.0609 43.96C39.5209 43.96 43.9609 39.52 43.9609 34.06C43.9609 30.74 42.3209 27.8 39.8209 26" stroke="white" stroke-width="2" stroke-linecap="round" stroke-linejoin="round"/>
</svg>
