<svg width="20" height="20" viewBox="0 0 20 20" fill="none" xmlns="http://www.w3.org/2000/svg">
<path d="M3.32408 12.2157L2.05742 10.949C1.54076 10.4324 1.54076 9.58237 2.05742 9.0657L3.32408 7.79902C3.54075 7.58235 3.71575 7.15735 3.71575 6.85735V5.06566C3.71575 4.33233 4.31575 3.73235 5.04909 3.73235H6.84075C7.14075 3.73235 7.56575 3.55737 7.78242 3.34071L9.04908 2.07402C9.56574 1.55736 10.4158 1.55736 10.9324 2.07402L12.1991 3.34071C12.4158 3.55737 12.8407 3.73235 13.1407 3.73235H14.9324C15.6658 3.73235 16.2657 4.33233 16.2657 5.06566V6.85735C16.2657 7.15735 16.4407 7.58235 16.6574 7.79902L17.9241 9.0657C18.4408 9.58237 18.4408 10.4324 17.9241 10.949L16.6574 12.2157C16.4407 12.4324 16.2657 12.8574 16.2657 13.1574V14.949C16.2657 15.6823 15.6658 16.2824 14.9324 16.2824H13.1407C12.8407 16.2824 12.4158 16.4574 12.1991 16.674L10.9324 17.9407C10.4158 18.4574 9.56574 18.4574 9.04908 17.9407L7.78242 16.674C7.56575 16.4574 7.14075 16.2824 6.84075 16.2824H5.04909C4.31575 16.2824 3.71575 15.6823 3.71575 14.949V13.1574C3.71575 12.8491 3.54075 12.4241 3.32408 12.2157Z" stroke="#E94A65" stroke-linecap="round" stroke-linejoin="round"/>
<path d="M7.5 12.5L12.5 7.5" stroke="#E94A65" stroke-linecap="round" stroke-linejoin="round"/>
<path d="M12.0789 12.083H12.0863" stroke="#E94A65" stroke-width="2" stroke-linecap="round" stroke-linejoin="round"/>
<path d="M7.91209 7.91667H7.91957" stroke="#E94A65" stroke-width="2" stroke-linecap="round" stroke-linejoin="round"/>
</svg>
