<svg width="46" height="46" viewBox="0 0 46 46" fill="none" xmlns="http://www.w3.org/2000/svg">
<path fill-rule="evenodd" clip-rule="evenodd" d="M16.9512 20.2686H29.0478V30.5486H16.9512V20.2686ZM18.7552 22.0726H27.2436V28.7445H18.7552V22.0726Z" fill="white"/>
<path d="M20.5736 20.1305V21.0326H18.7695V17.7622C18.7695 16.6392 19.2152 15.5629 20.0076 14.7686C20.8018 13.9762 21.8799 13.5288 23.0012 13.5288C24.1224 13.5288 25.2005 13.9762 25.9947 14.7686C26.7872 15.5629 27.2328 16.6392 27.2328 17.7622V21.0326H25.4287V17.7622C25.4287 17.119 25.1736 16.499 24.7189 16.0444C24.2625 15.5898 23.6444 15.3328 23.0011 15.3328C22.3578 15.3328 21.7397 15.5898 21.2833 16.0444C20.8287 16.499 20.5735 17.1189 20.5735 17.7622L20.5736 20.1305Z" fill="white"/>
<path d="M22.1926 3.95495L21.6445 3.23799L23.0766 2.14191L23.6247 2.85707C24.0703 3.43745 24.5393 3.9981 25.0352 4.53533C25.5509 5.09777 26.0864 5.6386 26.6452 6.1561C27.2256 6.69696 27.824 7.21805 28.4403 7.71757C29.0818 8.23686 29.7376 8.73637 30.4096 9.21616C31.105 9.71387 31.8148 10.1919 32.5354 10.6501C33.2811 11.1244 34.0357 11.5826 34.8048 12.0211C35.5936 12.4721 36.3932 12.9088 37.2 13.3256C38.2045 13.8449 39.2215 14.3426 40.2475 14.8152C40.2242 15.6526 40.1703 16.4863 40.084 17.3201C40.0157 17.9813 39.9295 18.6408 39.8271 19.2966C39.6096 20.682 39.3221 22.0548 38.9664 23.4115C38.598 24.8292 38.156 26.2254 37.6439 27.5964C37.1264 28.9926 36.5298 30.3546 35.856 31.6825C35.52 32.3438 35.1624 32.9942 34.785 33.6321C34.4113 34.2664 34.0142 34.8864 33.5955 35.4919C33.1805 36.0903 32.7438 36.6742 32.2838 37.2385C31.8292 37.7955 31.3494 38.3328 30.8481 38.8485C30.3504 39.3588 29.8311 39.8422 29.2866 40.3003C28.7475 40.7549 28.1834 41.1772 27.5975 41.5671C27.0136 41.957 26.4062 42.3092 25.7809 42.6255C25.1502 42.9417 24.5016 43.2167 23.8349 43.4467L22.9832 43.7414L22.3938 42.0361L23.2455 41.7415C23.8349 41.5384 24.4117 41.294 24.9705 41.0137C25.5312 40.7316 26.0738 40.4154 26.5967 40.0686C27.1268 39.7128 27.6371 39.3301 28.1259 38.9204C28.6236 38.5017 29.1016 38.0579 29.5544 37.5907C30.0198 37.1127 30.4636 36.615 30.8841 36.0975C31.3153 35.571 31.7232 35.0266 32.1113 34.4659C32.5067 33.8963 32.8804 33.3105 33.2326 32.714C33.592 32.1084 33.9298 31.4921 34.2478 30.865C34.8893 29.6 35.4607 28.2991 35.9548 26.9676C36.4454 25.6522 36.8677 24.3136 37.2216 22.9569C37.5612 21.6578 37.8361 20.3425 38.0446 19.0164C38.1434 18.391 38.2243 17.7639 38.289 17.1332C38.3303 16.7343 38.3644 16.3354 38.3896 15.9347C37.7122 15.6094 37.0401 15.2734 36.3717 14.9266C35.5416 14.499 34.7186 14.0516 33.9082 13.5862C33.1158 13.1333 32.3359 12.6626 31.5669 12.172C30.8176 11.6958 30.0827 11.1999 29.3603 10.6842C28.6595 10.1829 27.9749 9.66176 27.3047 9.11914C26.656 8.59446 26.0271 8.04463 25.4161 7.4768C24.8231 6.92696 24.2536 6.35196 23.7073 5.75718C23.1755 5.1786 22.6705 4.57664 22.1925 3.9549L22.1926 3.95495Z" fill="white"/>
<path d="M22.754 41.7413L23.6057 42.036L23.0163 43.7412L22.1646 43.4466C21.498 43.2166 20.8493 42.9416 20.2186 42.6254C19.5932 42.3091 18.9859 41.9569 18.4019 41.567C17.8162 41.1771 17.2519 40.7548 16.7129 40.3002C16.1684 39.842 15.6491 39.3586 15.1514 38.8484C14.6501 38.3326 14.1703 37.7954 13.7157 37.2384C13.2557 36.6741 12.8191 36.0901 12.4039 35.4918C11.9853 34.8862 11.5882 34.2663 11.2144 33.632C10.8371 32.9941 10.4795 32.3436 10.1435 31.6824C9.4697 30.3545 8.87313 28.9924 8.35563 27.5963C7.84351 26.2253 7.40149 24.8291 7.03313 23.4114C6.67734 22.0547 6.38986 20.6819 6.17242 19.2965C6.07 18.6406 5.98375 17.9812 5.91547 17.3199C5.82922 16.4862 5.77531 15.6524 5.75195 14.8151C6.78157 14.3408 7.80038 13.843 8.81022 13.3237C9.62419 12.905 10.431 12.4702 11.227 12.0192C12.0051 11.5789 12.7705 11.1225 13.5252 10.6481C14.2584 10.1881 14.9789 9.70837 15.6869 9.21244C16.3679 8.73087 17.0363 8.23136 17.6868 7.71206C18.3139 7.21434 18.923 6.69325 19.5124 6.15239C20.0767 5.63489 20.6193 5.09402 21.1404 4.53162C21.6381 3.99614 22.1108 3.43733 22.5546 2.85695L23.1044 2.14178L24.5347 3.23967L23.9867 3.95483C23.5069 4.57836 22.9984 5.18211 22.4629 5.7607C21.9095 6.35727 21.3309 6.93227 20.7325 7.48211C20.1108 8.05172 19.4711 8.59798 18.8117 9.12265C18.1306 9.66531 17.4353 10.1864 16.7237 10.6877C15.9905 11.2016 15.2449 11.6975 14.4848 12.1755C13.7067 12.6643 12.9161 13.135 12.1165 13.5897C11.299 14.0515 10.4706 14.4989 9.63325 14.9284C8.96303 15.2734 8.28918 15.6094 7.60999 15.9346C7.63514 16.3353 7.66928 16.7342 7.71061 17.1331C7.7753 17.7638 7.85616 18.391 7.95499 19.0163C8.16342 20.3424 8.43835 21.6577 8.77797 22.9568C9.13196 24.3135 9.55422 25.6522 10.0448 26.9675C10.5389 28.2989 11.1103 29.5999 11.7518 30.8649C12.0698 31.492 12.4076 32.1083 12.767 32.7139C13.1192 33.3105 13.4929 33.8962 13.8883 34.4658C14.2764 35.0265 14.6843 35.5709 15.1155 36.0974C15.536 36.6149 15.9798 37.1126 16.4452 37.5906C16.898 38.0578 17.376 38.5016 17.8737 38.9203C18.3625 39.33 18.8728 39.7127 19.4029 40.0685C19.9258 40.4153 20.4684 40.7315 21.0291 41.0137C21.5879 41.294 22.1647 41.5383 22.7541 41.7414L22.754 41.7413Z" fill="white"/>
</svg>
