<svg width="44" height="44" viewBox="0 0 44 44" fill="none" xmlns="http://www.w3.org/2000/svg">
<path d="M21.9993 40.3334C32.1246 40.3334 40.3327 32.1252 40.3327 22C40.3327 11.8748 32.1246 3.66669 21.9993 3.66669C11.8741 3.66669 3.66602 11.8748 3.66602 22C3.66602 32.1252 11.8741 40.3334 21.9993 40.3334Z" stroke="white" stroke-width="2" stroke-linecap="round" stroke-linejoin="round"/>
<path d="M14.6663 5.5H16.4996C12.9246 16.2067 12.9246 27.7933 16.4996 38.5H14.6663" stroke="white" stroke-width="2" stroke-linecap="round" stroke-linejoin="round"/>
<path d="M27.5 5.5C31.075 16.2067 31.075 27.7933 27.5 38.5" stroke="white" stroke-width="2" stroke-linecap="round" stroke-linejoin="round"/>
<path d="M5.5 29.3333V27.5C16.2067 31.075 27.7933 31.075 38.5 27.5V29.3333" stroke="white" stroke-width="2" stroke-linecap="round" stroke-linejoin="round"/>
<path d="M5.5 16.5C16.2067 12.925 27.7933 12.925 38.5 16.5" stroke="white" stroke-width="2" stroke-linecap="round" stroke-linejoin="round"/>
</svg>
