<svg width="46" height="46" viewBox="0 0 46 46" fill="none" xmlns="http://www.w3.org/2000/svg">
<path d="M14.3359 35.1708L20.2776 39.7708C21.0443 40.5375 22.7693 40.9208 23.9193 40.9208H31.2026C33.5026 40.9208 35.9943 39.1958 36.5693 36.8958L41.1693 22.9042C42.1276 20.2208 40.4026 17.9208 37.5276 17.9208H29.8609C28.7109 17.9208 27.7526 16.9625 27.9443 15.6208L28.9026 9.4875C29.2859 7.7625 28.1359 5.84584 26.4109 5.27084C24.8776 4.69584 22.9609 5.46251 22.1943 6.61251L14.3359 18.3042" stroke="white" stroke-width="2" stroke-miterlimit="10"/>
<path d="M4.5625 35.1708V16.3875C4.5625 13.7042 5.7125 12.7458 8.39583 12.7458H10.3125C12.9958 12.7458 14.1458 13.7042 14.1458 16.3875V35.1708C14.1458 37.8542 12.9958 38.8125 10.3125 38.8125H8.39583C5.7125 38.8125 4.5625 37.8542 4.5625 35.1708Z" stroke="white" stroke-width="2" stroke-linecap="round" stroke-linejoin="round"/>
</svg>
