<svg width="49" height="34" viewBox="0 0 49 34" fill="none" xmlns="http://www.w3.org/2000/svg">
<g opacity="0.2">
<rect opacity="0.18" width="49" height="34" rx="4" fill="white"/>
<path fill-rule="evenodd" clip-rule="evenodd" d="M24.5 24.4553C26.6028 22.6717 27.9398 19.994 27.9398 17.0003C27.9398 14.0066 26.6028 11.329 24.5 9.5454C26.1691 8.12972 28.3205 7.27734 30.6688 7.27734C35.9754 7.27734 40.2773 11.6305 40.2773 17.0003C40.2773 22.3702 35.9754 26.7233 30.6688 26.7233C28.3205 26.7233 26.1691 25.8709 24.5 24.4553ZM24.5 24.4553C22.8309 25.8709 20.6795 26.7233 18.3313 26.7233C13.0246 26.7233 8.72266 22.3702 8.72266 17.0003C8.72266 11.6305 13.0246 7.27734 18.3313 7.27734C20.6795 7.27734 22.8309 8.12972 24.5 9.5454C22.3972 11.329 21.0602 14.0066 21.0602 17.0003C21.0602 19.994 22.3972 22.6717 24.5 24.4553Z" fill="white"/>
</g>
</svg>
