<svg width="20" height="20" viewBox="0 0 20 20" fill="none" xmlns="http://www.w3.org/2000/svg">
<path d="M14.6334 1.66699H5.34169C3.31669 1.66699 1.66669 3.31699 1.66669 5.34199V10.7587V10.9253C1.66669 12.9587 3.31669 14.6003 5.34169 14.6003H8.54169C9.00002 14.6003 9.37502 14.9753 9.37502 15.4337V16.242C9.37502 16.7003 9.00002 17.0753 8.54169 17.0753H6.52502C6.18335 17.0753 5.90002 17.3587 5.90002 17.7003C5.90002 18.042 6.17502 18.3337 6.52502 18.3337H13.4834C13.825 18.3337 14.1084 18.0503 14.1084 17.7087C14.1084 17.367 13.825 17.0837 13.4834 17.0837H11.4667C11.0084 17.0837 10.6334 16.7087 10.6334 16.2503V15.442C10.6334 14.9837 11.0084 14.6087 11.4667 14.6087H14.6417C16.675 14.6087 18.3167 12.9587 18.3167 10.9337V10.767V5.35033C18.3084 3.31699 16.6584 1.66699 14.6334 1.66699Z" fill="white"/>
</svg>
