<svg width="50" height="34" viewBox="0 0 50 34" fill="none" xmlns="http://www.w3.org/2000/svg">
<g opacity="0.2">
<rect opacity="0.18" width="50" height="34" rx="4" fill="white"/>
<path fill-rule="evenodd" clip-rule="evenodd" d="M13.0338 12.8398H10.5846C10.417 12.8398 10.2745 12.9606 10.2483 13.1247L9.25776 19.3528C9.23807 19.4758 9.33404 19.5865 9.45975 19.5865H10.629C10.7966 19.5865 10.9392 19.4657 10.9653 19.3014L11.2325 17.6216C11.2583 17.4571 11.4011 17.3364 11.5684 17.3364H12.3437C13.9571 17.3364 14.8882 16.5622 15.1315 15.028C15.241 14.3568 15.1361 13.8294 14.8191 13.4599C14.4711 13.0545 13.8535 12.8398 13.0338 12.8398ZM13.3164 15.1146C13.1825 15.9861 12.511 15.9861 11.8617 15.9861H11.4921L11.7514 14.3584C11.7668 14.2601 11.8527 14.1877 11.953 14.1877H12.1224C12.5647 14.1877 12.982 14.1877 13.1976 14.4376C13.326 14.5869 13.3655 14.8084 13.3164 15.1146ZM20.3551 15.0867H19.1823C19.0823 15.0867 18.996 15.1591 18.9806 15.2576L18.9287 15.5828L18.8467 15.465C18.5928 15.0995 18.0266 14.9774 17.4615 14.9774C16.1653 14.9774 15.0584 15.9508 14.8428 17.3164C14.7308 17.9975 14.89 18.6488 15.2797 19.103C15.6371 19.5206 16.1486 19.6947 16.757 19.6947C17.8012 19.6947 18.3805 19.0287 18.3805 19.0287L18.3281 19.352C18.3084 19.4756 18.4043 19.5864 18.5293 19.5864H19.5858C19.7539 19.5864 19.8956 19.4656 19.9221 19.3012L20.556 15.3204C20.5761 15.1979 20.4804 15.0867 20.3551 15.0867ZM18.7202 17.3504C18.607 18.0149 18.0752 18.4609 17.397 18.4609C17.0564 18.4609 16.7841 18.3526 16.6095 18.1473C16.4361 17.9435 16.3702 17.6533 16.4253 17.3302C16.5311 16.6713 17.0719 16.2108 17.7398 16.2108C18.0727 16.2108 18.3435 16.3204 18.5218 16.5275C18.7005 16.7367 18.7714 17.0286 18.7202 17.3504ZM25.423 15.0865H26.6017C26.7667 15.0865 26.863 15.2701 26.7692 15.4043L22.8492 21.0156C22.7857 21.1064 22.6812 21.1605 22.5695 21.1605H21.3923C21.2265 21.1605 21.1298 20.9755 21.2257 20.8409L22.4463 19.1323L21.1482 15.3542C21.1032 15.2229 21.201 15.0865 21.3419 15.0865H22.5C22.6505 15.0865 22.7833 15.1844 22.8267 15.3273L23.5156 17.6091L25.1413 15.2346C25.2049 15.1419 25.3106 15.0865 25.423 15.0865Z" fill="white"/>
<path fill-rule="evenodd" clip-rule="evenodd" d="M38.2025 19.3522L39.2076 13.0101C39.223 12.9117 39.309 12.8392 39.409 12.8389H40.5406C40.6655 12.8389 40.7615 12.95 40.7418 13.0729L39.7505 19.3007C39.7247 19.4651 39.5822 19.5859 39.4143 19.5859H38.4037C38.2787 19.5859 38.1827 19.4751 38.2025 19.3522ZM30.5044 12.8392H28.0548C27.8876 12.8392 27.745 12.96 27.7189 13.124L26.7283 19.3522C26.7086 19.4751 26.8045 19.5859 26.9296 19.5859H28.1865C28.3034 19.5859 28.4033 19.5014 28.4216 19.3864L28.7026 17.6209C28.7285 17.4564 28.8713 17.3358 29.0386 17.3358H29.8135C31.4272 17.3358 32.3581 16.5615 32.6016 15.0273C32.7115 14.3561 32.6059 13.8287 32.289 13.4593C31.9412 13.0538 31.3242 12.8392 30.5044 12.8392ZM30.787 15.114C30.6534 15.9855 29.9819 15.9855 29.3322 15.9855H28.963L29.2227 14.3578C29.2381 14.2595 29.3233 14.187 29.4239 14.187H29.5933C30.0353 14.187 30.4529 14.187 30.6684 14.437C30.797 14.5862 30.8361 14.8078 30.787 15.114ZM37.8251 15.086H36.653C36.5523 15.086 36.4668 15.1585 36.4517 15.2569L36.3998 15.5822L36.3174 15.4643C36.0635 15.0988 35.4977 14.9767 34.9326 14.9767C33.6364 14.9767 32.5298 15.9502 32.3142 17.3157C32.2025 17.9968 32.3611 18.6481 32.7508 19.1024C33.1089 19.52 33.6197 19.694 34.2281 19.694C35.2723 19.694 35.8514 19.0281 35.8514 19.0281L35.7992 19.3514C35.7795 19.475 35.8754 19.5857 36.0012 19.5857H37.0573C37.2245 19.5857 37.367 19.4649 37.3932 19.3006L38.0274 15.3197C38.0468 15.1973 37.9509 15.086 37.8251 15.086ZM36.1903 17.3498C36.0778 18.0142 35.5453 18.4603 34.867 18.4603C34.5271 18.4603 34.2543 18.352 34.0794 18.1467C33.9061 17.9429 33.8409 17.6527 33.8955 17.3295C34.0017 16.6707 34.5418 16.2102 35.2097 16.2102C35.5428 16.2102 35.8135 16.3198 35.9919 16.5269C36.1713 16.7361 36.2422 17.028 36.1903 17.3498Z" fill="white"/>
</g>
</svg>
