<svg width="49" height="34" viewBox="0 0 49 34" fill="none" xmlns="http://www.w3.org/2000/svg">
<g opacity="0.2">
<rect opacity="0.18" width="49" height="34" rx="4" fill="white"/>
<path fill-rule="evenodd" clip-rule="evenodd" d="M26.3276 11.5343L23.8385 12.0749V10.0326L26.3276 9.50195V11.5343ZM16.2125 10.6631L13.7928 11.1837L13.7829 19.2018C13.7829 20.6833 14.8837 21.7745 16.3513 21.7745C17.1645 21.7745 17.7595 21.6243 18.0868 21.4441V19.4121C17.7694 19.5422 16.2026 20.0027 16.2026 18.5211V14.9675H18.0868V12.8353H16.2026L16.2125 10.6631ZM42.7 17.2499C42.7 14.6872 41.4703 12.6652 39.1201 12.6652C36.7599 12.6652 35.3319 14.6872 35.3319 17.2298C35.3319 20.2429 37.0177 21.7645 39.4374 21.7645C40.6175 21.7645 41.51 21.4942 42.1843 21.1138V19.1118C41.51 19.4521 40.7365 19.6623 39.7547 19.6623C38.7928 19.6623 37.94 19.322 37.8309 18.1408H42.6802C42.6802 18.0856 42.6837 17.9602 42.6878 17.8158C42.6934 17.6196 42.7 17.3882 42.7 17.2499ZM37.8011 16.2991C37.8011 15.1678 38.4854 14.6973 39.1101 14.6973C39.715 14.6973 40.3596 15.1678 40.3596 16.2991H37.8011ZM10.3518 14.8374C9.82626 14.8374 9.50893 14.9876 9.50893 15.378C9.50893 15.8042 10.0551 15.9917 10.7326 16.2243C11.8372 16.6036 13.291 17.1027 13.2971 18.9516C13.2971 20.7434 11.879 21.7745 9.81635 21.7745C8.96351 21.7745 8.03134 21.6043 7.10908 21.2039V18.8215C7.94209 19.282 8.99326 19.6223 9.81635 19.6223C10.3717 19.6223 10.7684 19.4721 10.7684 19.0117C10.7684 18.5395 10.1763 18.3237 9.46159 18.0632C8.3731 17.6664 7 17.1658 7 15.4981C7 13.7263 8.33876 12.6652 10.3518 12.6652C11.1749 12.6652 11.9881 12.7953 12.8112 13.1257V15.4781C12.0575 15.0676 11.1055 14.8374 10.3518 14.8374ZM21.171 13.5761L21.0123 12.8354H18.8703V21.5943H21.3495V15.6582C21.9346 14.8874 22.9262 15.0276 23.2337 15.1377V12.8354C22.9163 12.7152 21.7561 12.495 21.171 13.5761ZM23.8383 12.8354H26.3275V21.5943H23.8383V12.8354ZM29.5603 13.446C29.9074 13.1256 30.5321 12.6652 31.504 12.6652C33.2394 12.6652 34.8756 14.2468 34.8855 17.1498C34.8855 20.323 33.2691 21.7645 31.494 21.7645C30.6214 21.7645 30.0958 21.3941 29.7388 21.1338L29.7289 23.9667L27.2497 24.4973V12.8253H29.4314L29.5603 13.446ZM29.7388 19.0922C29.9768 19.3525 30.3238 19.5627 30.9089 19.5627C31.8213 19.5627 32.4361 18.5616 32.4361 17.2201C32.4361 15.9086 31.8113 14.8874 30.9089 14.8874C30.3437 14.8874 29.9867 15.0877 29.7288 15.378L29.7388 19.0922Z" fill="white"/>
</g>
</svg>
