<svg width="50" height="34" viewBox="0 0 50 34" fill="none" xmlns="http://www.w3.org/2000/svg">
<g opacity="0.2">
<rect opacity="0.18" width="50" height="34" rx="4" fill="white"/>
<path d="M21.3916 22.784H18.5645L20.3327 11.9414H23.1597L21.3916 22.784Z" fill="white"/>
<path d="M31.639 12.2067C31.0814 11.9873 30.197 11.7451 29.1033 11.7451C26.3115 11.7451 24.3455 13.2215 24.3334 15.3322C24.3102 16.8895 25.741 17.7545 26.8111 18.2738C27.9049 18.8044 28.2767 19.1507 28.2767 19.6237C28.2656 20.35 27.3929 20.6849 26.5789 20.6849C25.4502 20.6849 24.8454 20.5122 23.9264 20.1081L23.5541 19.9349L23.1585 22.3688C23.8215 22.6684 25.0432 22.9342 26.3115 22.9459C29.2779 22.9459 31.2091 21.4923 31.232 19.243C31.2433 18.0087 30.4878 17.0629 28.8589 16.2901C27.8701 15.794 27.2646 15.4595 27.2646 14.9519C27.2762 14.4904 27.7768 14.0178 28.8929 14.0178C29.812 13.9946 30.4873 14.2137 30.9989 14.4329L31.2546 14.5481L31.639 12.2067Z" fill="white"/>
<path d="M35.398 18.9429C35.6308 18.32 36.5267 15.9092 36.5267 15.9092C36.515 15.9323 36.7591 15.2748 36.8987 14.8711L37.0962 15.8054C37.0962 15.8054 37.6316 18.4008 37.7479 18.9429C37.306 18.9429 35.9564 18.9429 35.398 18.9429ZM38.8877 11.9414H36.7009C36.0266 11.9414 35.5143 12.1373 35.2233 12.841L31.024 22.7839H33.9904C33.9904 22.7839 34.4788 21.4456 34.5837 21.1574C34.9092 21.1574 37.7949 21.1574 38.2135 21.1574C38.2947 21.5381 38.5508 22.7839 38.5508 22.7839H41.1685L38.8877 11.9414Z" fill="white"/>
<path d="M16.2028 11.9414L13.4342 19.335L13.1316 17.8355C12.6197 16.1053 11.0144 14.2254 9.22293 13.2907L11.7589 22.7725H14.7485L19.1923 11.9414H16.2028Z" fill="white"/>
<path d="M10.8632 11.9414H6.31466L6.26813 12.1605C9.81628 13.0604 12.1662 15.2295 13.1316 17.8367L12.1428 12.8529C11.98 12.1604 11.4797 11.9643 10.8632 11.9414Z" fill="white"/>
</g>
</svg>
